<?xml version="1.0" encoding="utf-8" standalone="no"?>
<!DOCTYPE svg PUBLIC "-//W3C//DTD SVG 1.1//EN"
  "http://www.w3.org/Graphics/SVG/1.1/DTD/svg11.dtd">
<!-- Created with matplotlib (https://matplotlib.org/) -->
<svg height="345.944375pt" version="1.1" viewBox="0 0 328.628506 345.944375" width="328.628506pt" xmlns="http://www.w3.org/2000/svg" xmlns:xlink="http://www.w3.org/1999/xlink">
 <metadata>
  <rdf:RDF xmlns:cc="http://creativecommons.org/ns#" xmlns:dc="http://purl.org/dc/elements/1.1/" xmlns:rdf="http://www.w3.org/1999/02/22-rdf-syntax-ns#">
   <cc:Work>
    <dc:type rdf:resource="http://purl.org/dc/dcmitype/StillImage"/>
    <dc:date>2025-04-28T04:06:22.586108</dc:date>
    <dc:format>image/svg+xml</dc:format>
    <dc:creator>
     <cc:Agent>
      <dc:title>Matplotlib v3.3.4, https://matplotlib.org/</dc:title>
     </cc:Agent>
    </dc:creator>
   </cc:Work>
  </rdf:RDF>
 </metadata>
 <defs>
  <style type="text/css">*{stroke-linecap:butt;stroke-linejoin:round;}</style>
 </defs>
 <g id="figure_1">
  <g id="patch_1">
   <path d="M 0 345.944375 
L 328.628506 345.944375 
L 328.628506 0 
L 0 0 
z
" style="fill:none;"/>
  </g>
  <g id="axes_1">
   <g id="patch_2">
    <path d="M 42.29375 298.677187 
L 321.29375 298.677187 
L 321.29375 26.877187 
L 42.29375 26.877187 
z
" style="fill:#ffffff;"/>
   </g>
   <g id="PathCollection_1">
    <defs>
     <path d="M 0 3 
C 0.795609 3 1.55874 2.683901 2.12132 2.12132 
C 2.683901 1.55874 3 0.795609 3 0 
C 3 -0.795609 2.683901 -1.55874 2.12132 -2.12132 
C 1.55874 -2.683901 0.795609 -3 0 -3 
C -0.795609 -3 -1.55874 -2.683901 -2.12132 -2.12132 
C -2.683901 -1.55874 -3 -0.795609 -3 0 
C -3 0.795609 -2.683901 1.55874 -2.12132 2.12132 
C -1.55874 2.683901 -0.795609 3 0 3 
z
" id="m0331d0574e" style="stroke:#ffffff;stroke-width:0.48;"/>
    </defs>
    <g clip-path="url(#pc83380b08f)">
     <use style="fill:#1f77b4;stroke:#ffffff;stroke-width:0.48;" x="97.939179" xlink:href="#m0331d0574e" y="147.320727"/>
     <use style="fill:#1f77b4;stroke:#ffffff;stroke-width:0.48;" x="99.871312" xlink:href="#m0331d0574e" y="162.089029"/>
     <use style="fill:#1f77b4;stroke:#ffffff;stroke-width:0.48;" x="133.876852" xlink:href="#m0331d0574e" y="137.267139"/>
     <use style="fill:#1f77b4;stroke:#ffffff;stroke-width:0.48;" x="97.166326" xlink:href="#m0331d0574e" y="160.622363"/>
     <use style="fill:#1f77b4;stroke:#ffffff;stroke-width:0.48;" x="69.730038" xlink:href="#m0331d0574e" y="174.919344"/>
     <use style="fill:#1f77b4;stroke:#ffffff;stroke-width:0.48;" x="145.083224" xlink:href="#m0331d0574e" y="162.752718"/>
     <use style="fill:#1f77b4;stroke:#ffffff;stroke-width:0.48;" x="118.806215" xlink:href="#m0331d0574e" y="163.272225"/>
     <use style="fill:#1f77b4;stroke:#ffffff;stroke-width:0.48;" x="299.267434" xlink:href="#m0331d0574e" y="147.566552"/>
     <use style="fill:#1f77b4;stroke:#ffffff;stroke-width:0.48;" x="119.579069" xlink:href="#m0331d0574e" y="180.807466"/>
     <use style="fill:#1f77b4;stroke:#ffffff;stroke-width:0.48;" x="117.260509" xlink:href="#m0331d0574e" y="176.294155"/>
     <use style="fill:#1f77b4;stroke:#ffffff;stroke-width:0.48;" x="178.702337" xlink:href="#m0331d0574e" y="193.215399"/>
     <use style="fill:#1f77b4;stroke:#ffffff;stroke-width:0.48;" x="200.728653" xlink:href="#m0331d0574e" y="209.317102"/>
     <use style="fill:#1f77b4;stroke:#ffffff;stroke-width:0.48;" x="77.844997" xlink:href="#m0331d0574e" y="109.863525"/>
     <use style="fill:#1f77b4;stroke:#ffffff;stroke-width:0.48;" x="70.116465" xlink:href="#m0331d0574e" y="193.97659"/>
     <use style="fill:#1f77b4;stroke:#ffffff;stroke-width:0.48;" x="81.709262" xlink:href="#m0331d0574e" y="112.458424"/>
     <use style="fill:#1f77b4;stroke:#ffffff;stroke-width:0.48;" x="200.728653" xlink:href="#m0331d0574e" y="175.532588"/>
     <use style="fill:#1f77b4;stroke:#ffffff;stroke-width:0.48;" x="166.723113" xlink:href="#m0331d0574e" y="160.252309"/>
     <use style="fill:#1f77b4;stroke:#ffffff;stroke-width:0.48;" x="85.187102" xlink:href="#m0331d0574e" y="174.660344"/>
     <use style="fill:#1f77b4;stroke:#ffffff;stroke-width:0.48;" x="196.091534" xlink:href="#m0331d0574e" y="191.993429"/>
     <use style="fill:#1f77b4;stroke:#ffffff;stroke-width:0.48;" x="190.295135" xlink:href="#m0331d0574e" y="115.383851"/>
     <use style="fill:#1f77b4;stroke:#ffffff;stroke-width:0.48;" x="222.368542" xlink:href="#m0331d0574e" y="185.92235"/>
     <use style="fill:#1f77b4;stroke:#ffffff;stroke-width:0.48;" x="147.401783" xlink:href="#m0331d0574e" y="147.791671"/>
     <use style="fill:#1f77b4;stroke:#ffffff;stroke-width:0.48;" x="84.800675" xlink:href="#m0331d0574e" y="209.099135"/>
     <use style="fill:#1f77b4;stroke:#ffffff;stroke-width:0.48;" x="168.268819" xlink:href="#m0331d0574e" y="188.818413"/>
     <use style="fill:#1f77b4;stroke:#ffffff;stroke-width:0.48;" x="145.856077" xlink:href="#m0331d0574e" y="193.779704"/>
     <use style="fill:#1f77b4;stroke:#ffffff;stroke-width:0.48;" x="102.962725" xlink:href="#m0331d0574e" y="198.238053"/>
     <use style="fill:#1f77b4;stroke:#ffffff;stroke-width:0.48;" x="301.97242" xlink:href="#m0331d0574e" y="187.722931"/>
     <use style="fill:#1f77b4;stroke:#ffffff;stroke-width:0.48;" x="321.29375" xlink:href="#m0331d0574e" y="192.476043"/>
     <use style="fill:#1f77b4;stroke:#ffffff;stroke-width:0.48;" x="156.676021" xlink:href="#m0331d0574e" y="195.452291"/>
     <use style="fill:#1f77b4;stroke:#ffffff;stroke-width:0.48;" x="167.495966" xlink:href="#m0331d0574e" y="224.747587"/>
     <use style="fill:#1f77b4;stroke:#ffffff;stroke-width:0.48;" x="94.847767" xlink:href="#m0331d0574e" y="175.955347"/>
     <use style="fill:#1f77b4;stroke:#ffffff;stroke-width:0.48;" x="69.343611" xlink:href="#m0331d0574e" y="217.259912"/>
     <use style="fill:#1f77b4;stroke:#ffffff;stroke-width:0.48;" x="123.056908" xlink:href="#m0331d0574e" y="171.64231"/>
     <use style="fill:#1f77b4;stroke:#ffffff;stroke-width:0.48;" x="161.699567" xlink:href="#m0331d0574e" y="175.259659"/>
     <use style="fill:#1f77b4;stroke:#ffffff;stroke-width:0.48;" x="42.29375" xlink:href="#m0331d0574e" y="246.746071"/>
     <use style="fill:#1f77b4;stroke:#ffffff;stroke-width:0.48;" x="182.566603" xlink:href="#m0331d0574e" y="181.690251"/>
     <use style="fill:#1f77b4;stroke:#ffffff;stroke-width:0.48;" x="317.815911" xlink:href="#m0331d0574e" y="178.492272"/>
     <use style="fill:#1f77b4;stroke:#ffffff;stroke-width:0.48;" x="96.7799" xlink:href="#m0331d0574e" y="188.001131"/>
     <use style="fill:#1f77b4;stroke:#ffffff;stroke-width:0.48;" x="299.267434" xlink:href="#m0331d0574e" y="193.309889"/>
     <use style="fill:#1f77b4;stroke:#ffffff;stroke-width:0.48;" x="223.914249" xlink:href="#m0331d0574e" y="185.373856"/>
     <use style="fill:#1f77b4;stroke:#ffffff;stroke-width:0.48;" x="229.710648" xlink:href="#m0331d0574e" y="203.993286"/>
     <use style="fill:#1f77b4;stroke:#ffffff;stroke-width:0.48;" x="108.759124" xlink:href="#m0331d0574e" y="201.39274"/>
     <use style="fill:#1f77b4;stroke:#ffffff;stroke-width:0.48;" x="241.303445" xlink:href="#m0331d0574e" y="200.013035"/>
     <use style="fill:#1f77b4;stroke:#ffffff;stroke-width:0.48;" x="310.860232" xlink:href="#m0331d0574e" y="199.550749"/>
     <use style="fill:#1f77b4;stroke:#ffffff;stroke-width:0.48;" x="200.728653" xlink:href="#m0331d0574e" y="179.449219"/>
     <use style="fill:#1f77b4;stroke:#ffffff;stroke-width:0.48;" x="42.29375" xlink:href="#m0331d0574e" y="248.834639"/>
     <use style="fill:#1f77b4;stroke:#ffffff;stroke-width:0.48;" x="198.023667" xlink:href="#m0331d0574e" y="209.039279"/>
     <use style="fill:#1f77b4;stroke:#ffffff;stroke-width:0.48;" x="117.646936" xlink:href="#m0331d0574e" y="207.748041"/>
     <use style="fill:#1f77b4;stroke:#ffffff;stroke-width:0.48;" x="186.044443" xlink:href="#m0331d0574e" y="176.369446"/>
     <use style="fill:#1f77b4;stroke:#ffffff;stroke-width:0.48;" x="104.508431" xlink:href="#m0331d0574e" y="149.632533"/>
     <use style="fill:#1f77b4;stroke:#ffffff;stroke-width:0.48;" x="122.670481" xlink:href="#m0331d0574e" y="134.555915"/>
    </g>
   </g>
   <g id="matplotlib.axis_1">
    <g id="xtick_1">
     <g id="line2d_1">
      <defs>
       <path d="M 0 0 
L 0 3.5 
" id="m89ea178570" style="stroke:#000000;stroke-width:0.8;"/>
      </defs>
      <g>
       <use style="stroke:#000000;stroke-width:0.8;" x="46.158016" xlink:href="#m89ea178570" y="298.677187"/>
      </g>
     </g>
     <g id="text_1">
      <!-- 1 -->
      <g transform="translate(41.386141 317.074844)scale(0.15 -0.15)">
       <defs>
        <path d="M 12.40625 8.296875 
L 28.515625 8.296875 
L 28.515625 63.921875 
L 10.984375 60.40625 
L 10.984375 69.390625 
L 28.421875 72.90625 
L 38.28125 72.90625 
L 38.28125 8.296875 
L 54.390625 8.296875 
L 54.390625 0 
L 12.40625 0 
z
" id="DejaVuSans-49"/>
       </defs>
       <use xlink:href="#DejaVuSans-49"/>
      </g>
     </g>
    </g>
    <g id="xtick_2">
     <g id="line2d_2">
      <g>
       <use style="stroke:#000000;stroke-width:0.8;" x="84.800675" xlink:href="#m89ea178570" y="298.677187"/>
      </g>
     </g>
     <g id="text_2">
      <!-- 2 -->
      <g transform="translate(80.0288 317.074844)scale(0.15 -0.15)">
       <defs>
        <path d="M 19.1875 8.296875 
L 53.609375 8.296875 
L 53.609375 0 
L 7.328125 0 
L 7.328125 8.296875 
Q 12.9375 14.109375 22.625 23.890625 
Q 32.328125 33.6875 34.8125 36.53125 
Q 39.546875 41.84375 41.421875 45.53125 
Q 43.3125 49.21875 43.3125 52.78125 
Q 43.3125 58.59375 39.234375 62.25 
Q 35.15625 65.921875 28.609375 65.921875 
Q 23.96875 65.921875 18.8125 64.3125 
Q 13.671875 62.703125 7.8125 59.421875 
L 7.8125 69.390625 
Q 13.765625 71.78125 18.9375 73 
Q 24.125 74.21875 28.421875 74.21875 
Q 39.75 74.21875 46.484375 68.546875 
Q 53.21875 62.890625 53.21875 53.421875 
Q 53.21875 48.921875 51.53125 44.890625 
Q 49.859375 40.875 45.40625 35.40625 
Q 44.1875 33.984375 37.640625 27.21875 
Q 31.109375 20.453125 19.1875 8.296875 
z
" id="DejaVuSans-50"/>
       </defs>
       <use xlink:href="#DejaVuSans-50"/>
      </g>
     </g>
    </g>
    <g id="xtick_3">
     <g id="line2d_3">
      <g>
       <use style="stroke:#000000;stroke-width:0.8;" x="123.443334" xlink:href="#m89ea178570" y="298.677187"/>
      </g>
     </g>
     <g id="text_3">
      <!-- 3 -->
      <g transform="translate(118.671459 317.074844)scale(0.15 -0.15)">
       <defs>
        <path d="M 40.578125 39.3125 
Q 47.65625 37.796875 51.625 33 
Q 55.609375 28.21875 55.609375 21.1875 
Q 55.609375 10.40625 48.1875 4.484375 
Q 40.765625 -1.421875 27.09375 -1.421875 
Q 22.515625 -1.421875 17.65625 -0.515625 
Q 12.796875 0.390625 7.625 2.203125 
L 7.625 11.71875 
Q 11.71875 9.328125 16.59375 8.109375 
Q 21.484375 6.890625 26.8125 6.890625 
Q 36.078125 6.890625 40.9375 10.546875 
Q 45.796875 14.203125 45.796875 21.1875 
Q 45.796875 27.640625 41.28125 31.265625 
Q 36.765625 34.90625 28.71875 34.90625 
L 20.21875 34.90625 
L 20.21875 43.015625 
L 29.109375 43.015625 
Q 36.375 43.015625 40.234375 45.921875 
Q 44.09375 48.828125 44.09375 54.296875 
Q 44.09375 59.90625 40.109375 62.90625 
Q 36.140625 65.921875 28.71875 65.921875 
Q 24.65625 65.921875 20.015625 65.03125 
Q 15.375 64.15625 9.8125 62.3125 
L 9.8125 71.09375 
Q 15.4375 72.65625 20.34375 73.4375 
Q 25.25 74.21875 29.59375 74.21875 
Q 40.828125 74.21875 47.359375 69.109375 
Q 53.90625 64.015625 53.90625 55.328125 
Q 53.90625 49.265625 50.4375 45.09375 
Q 46.96875 40.921875 40.578125 39.3125 
z
" id="DejaVuSans-51"/>
       </defs>
       <use xlink:href="#DejaVuSans-51"/>
      </g>
     </g>
    </g>
    <g id="xtick_4">
     <g id="line2d_4">
      <g>
       <use style="stroke:#000000;stroke-width:0.8;" x="162.085994" xlink:href="#m89ea178570" y="298.677187"/>
      </g>
     </g>
     <g id="text_4">
      <!-- 4 -->
      <g transform="translate(157.314119 317.074844)scale(0.15 -0.15)">
       <defs>
        <path d="M 37.796875 64.3125 
L 12.890625 25.390625 
L 37.796875 25.390625 
z
M 35.203125 72.90625 
L 47.609375 72.90625 
L 47.609375 25.390625 
L 58.015625 25.390625 
L 58.015625 17.1875 
L 47.609375 17.1875 
L 47.609375 0 
L 37.796875 0 
L 37.796875 17.1875 
L 4.890625 17.1875 
L 4.890625 26.703125 
z
" id="DejaVuSans-52"/>
       </defs>
       <use xlink:href="#DejaVuSans-52"/>
      </g>
     </g>
    </g>
    <g id="xtick_5">
     <g id="line2d_5">
      <g>
       <use style="stroke:#000000;stroke-width:0.8;" x="200.728653" xlink:href="#m89ea178570" y="298.677187"/>
      </g>
     </g>
     <g id="text_5">
      <!-- 5 -->
      <g transform="translate(195.956778 317.074844)scale(0.15 -0.15)">
       <defs>
        <path d="M 10.796875 72.90625 
L 49.515625 72.90625 
L 49.515625 64.59375 
L 19.828125 64.59375 
L 19.828125 46.734375 
Q 21.96875 47.46875 24.109375 47.828125 
Q 26.265625 48.1875 28.421875 48.1875 
Q 40.625 48.1875 47.75 41.5 
Q 54.890625 34.8125 54.890625 23.390625 
Q 54.890625 11.625 47.5625 5.09375 
Q 40.234375 -1.421875 26.90625 -1.421875 
Q 22.3125 -1.421875 17.546875 -0.640625 
Q 12.796875 0.140625 7.71875 1.703125 
L 7.71875 11.625 
Q 12.109375 9.234375 16.796875 8.0625 
Q 21.484375 6.890625 26.703125 6.890625 
Q 35.15625 6.890625 40.078125 11.328125 
Q 45.015625 15.765625 45.015625 23.390625 
Q 45.015625 31 40.078125 35.4375 
Q 35.15625 39.890625 26.703125 39.890625 
Q 22.75 39.890625 18.8125 39.015625 
Q 14.890625 38.140625 10.796875 36.28125 
z
" id="DejaVuSans-53"/>
       </defs>
       <use xlink:href="#DejaVuSans-53"/>
      </g>
     </g>
    </g>
    <g id="xtick_6">
     <g id="line2d_6">
      <g>
       <use style="stroke:#000000;stroke-width:0.8;" x="239.371312" xlink:href="#m89ea178570" y="298.677187"/>
      </g>
     </g>
     <g id="text_6">
      <!-- 6 -->
      <g transform="translate(234.599437 317.074844)scale(0.15 -0.15)">
       <defs>
        <path d="M 33.015625 40.375 
Q 26.375 40.375 22.484375 35.828125 
Q 18.609375 31.296875 18.609375 23.390625 
Q 18.609375 15.53125 22.484375 10.953125 
Q 26.375 6.390625 33.015625 6.390625 
Q 39.65625 6.390625 43.53125 10.953125 
Q 47.40625 15.53125 47.40625 23.390625 
Q 47.40625 31.296875 43.53125 35.828125 
Q 39.65625 40.375 33.015625 40.375 
z
M 52.59375 71.296875 
L 52.59375 62.3125 
Q 48.875 64.0625 45.09375 64.984375 
Q 41.3125 65.921875 37.59375 65.921875 
Q 27.828125 65.921875 22.671875 59.328125 
Q 17.53125 52.734375 16.796875 39.40625 
Q 19.671875 43.65625 24.015625 45.921875 
Q 28.375 48.1875 33.59375 48.1875 
Q 44.578125 48.1875 50.953125 41.515625 
Q 57.328125 34.859375 57.328125 23.390625 
Q 57.328125 12.15625 50.6875 5.359375 
Q 44.046875 -1.421875 33.015625 -1.421875 
Q 20.359375 -1.421875 13.671875 8.265625 
Q 6.984375 17.96875 6.984375 36.375 
Q 6.984375 53.65625 15.1875 63.9375 
Q 23.390625 74.21875 37.203125 74.21875 
Q 40.921875 74.21875 44.703125 73.484375 
Q 48.484375 72.75 52.59375 71.296875 
z
" id="DejaVuSans-54"/>
       </defs>
       <use xlink:href="#DejaVuSans-54"/>
      </g>
     </g>
    </g>
    <g id="xtick_7">
     <g id="line2d_7">
      <g>
       <use style="stroke:#000000;stroke-width:0.8;" x="278.013972" xlink:href="#m89ea178570" y="298.677187"/>
      </g>
     </g>
     <g id="text_7">
      <!-- 7 -->
      <g transform="translate(273.242097 317.074844)scale(0.15 -0.15)">
       <defs>
        <path d="M 8.203125 72.90625 
L 55.078125 72.90625 
L 55.078125 68.703125 
L 28.609375 0 
L 18.3125 0 
L 43.21875 64.59375 
L 8.203125 64.59375 
z
" id="DejaVuSans-55"/>
       </defs>
       <use xlink:href="#DejaVuSans-55"/>
      </g>
     </g>
    </g>
    <g id="xtick_8">
     <g id="line2d_8">
      <g>
       <use style="stroke:#000000;stroke-width:0.8;" x="316.656631" xlink:href="#m89ea178570" y="298.677187"/>
      </g>
     </g>
     <g id="text_8">
      <!-- 8 -->
      <g transform="translate(311.884756 317.074844)scale(0.15 -0.15)">
       <defs>
        <path d="M 31.78125 34.625 
Q 24.75 34.625 20.71875 30.859375 
Q 16.703125 27.09375 16.703125 20.515625 
Q 16.703125 13.921875 20.71875 10.15625 
Q 24.75 6.390625 31.78125 6.390625 
Q 38.8125 6.390625 42.859375 10.171875 
Q 46.921875 13.96875 46.921875 20.515625 
Q 46.921875 27.09375 42.890625 30.859375 
Q 38.875 34.625 31.78125 34.625 
z
M 21.921875 38.8125 
Q 15.578125 40.375 12.03125 44.71875 
Q 8.5 49.078125 8.5 55.328125 
Q 8.5 64.0625 14.71875 69.140625 
Q 20.953125 74.21875 31.78125 74.21875 
Q 42.671875 74.21875 48.875 69.140625 
Q 55.078125 64.0625 55.078125 55.328125 
Q 55.078125 49.078125 51.53125 44.71875 
Q 48 40.375 41.703125 38.8125 
Q 48.828125 37.15625 52.796875 32.3125 
Q 56.78125 27.484375 56.78125 20.515625 
Q 56.78125 9.90625 50.3125 4.234375 
Q 43.84375 -1.421875 31.78125 -1.421875 
Q 19.734375 -1.421875 13.25 4.234375 
Q 6.78125 9.90625 6.78125 20.515625 
Q 6.78125 27.484375 10.78125 32.3125 
Q 14.796875 37.15625 21.921875 38.8125 
z
M 18.3125 54.390625 
Q 18.3125 48.734375 21.84375 45.5625 
Q 25.390625 42.390625 31.78125 42.390625 
Q 38.140625 42.390625 41.71875 45.5625 
Q 45.3125 48.734375 45.3125 54.390625 
Q 45.3125 60.0625 41.71875 63.234375 
Q 38.140625 66.40625 31.78125 66.40625 
Q 25.390625 66.40625 21.84375 63.234375 
Q 18.3125 60.0625 18.3125 54.390625 
z
" id="DejaVuSans-56"/>
       </defs>
       <use xlink:href="#DejaVuSans-56"/>
      </g>
     </g>
    </g>
    <g id="text_9">
     <!-- $\mathregular{Measured\ C-peptide_{1h-rise}}$ -->
     <g transform="translate(76.56875 335.594375)scale(0.15 -0.15)">
      <defs>
       <path d="M 9.8125 72.90625 
L 24.515625 72.90625 
L 43.109375 23.296875 
L 61.8125 72.90625 
L 76.515625 72.90625 
L 76.515625 0 
L 66.890625 0 
L 66.890625 64.015625 
L 48.09375 14.015625 
L 38.1875 14.015625 
L 19.390625 64.015625 
L 19.390625 0 
L 9.8125 0 
z
" id="DejaVuSans-77"/>
       <path d="M 56.203125 29.59375 
L 56.203125 25.203125 
L 14.890625 25.203125 
Q 15.484375 15.921875 20.484375 11.0625 
Q 25.484375 6.203125 34.421875 6.203125 
Q 39.59375 6.203125 44.453125 7.46875 
Q 49.3125 8.734375 54.109375 11.28125 
L 54.109375 2.78125 
Q 49.265625 0.734375 44.1875 -0.34375 
Q 39.109375 -1.421875 33.890625 -1.421875 
Q 20.796875 -1.421875 13.15625 6.1875 
Q 5.515625 13.8125 5.515625 26.8125 
Q 5.515625 40.234375 12.765625 48.109375 
Q 20.015625 56 32.328125 56 
Q 43.359375 56 49.78125 48.890625 
Q 56.203125 41.796875 56.203125 29.59375 
z
M 47.21875 32.234375 
Q 47.125 39.59375 43.09375 43.984375 
Q 39.0625 48.390625 32.421875 48.390625 
Q 24.90625 48.390625 20.390625 44.140625 
Q 15.875 39.890625 15.1875 32.171875 
z
" id="DejaVuSans-101"/>
       <path d="M 34.28125 27.484375 
Q 23.390625 27.484375 19.1875 25 
Q 14.984375 22.515625 14.984375 16.5 
Q 14.984375 11.71875 18.140625 8.90625 
Q 21.296875 6.109375 26.703125 6.109375 
Q 34.1875 6.109375 38.703125 11.40625 
Q 43.21875 16.703125 43.21875 25.484375 
L 43.21875 27.484375 
z
M 52.203125 31.203125 
L 52.203125 0 
L 43.21875 0 
L 43.21875 8.296875 
Q 40.140625 3.328125 35.546875 0.953125 
Q 30.953125 -1.421875 24.3125 -1.421875 
Q 15.921875 -1.421875 10.953125 3.296875 
Q 6 8.015625 6 15.921875 
Q 6 25.140625 12.171875 29.828125 
Q 18.359375 34.515625 30.609375 34.515625 
L 43.21875 34.515625 
L 43.21875 35.40625 
Q 43.21875 41.609375 39.140625 45 
Q 35.0625 48.390625 27.6875 48.390625 
Q 23 48.390625 18.546875 47.265625 
Q 14.109375 46.140625 10.015625 43.890625 
L 10.015625 52.203125 
Q 14.9375 54.109375 19.578125 55.046875 
Q 24.21875 56 28.609375 56 
Q 40.484375 56 46.34375 49.84375 
Q 52.203125 43.703125 52.203125 31.203125 
z
" id="DejaVuSans-97"/>
       <path d="M 44.28125 53.078125 
L 44.28125 44.578125 
Q 40.484375 46.53125 36.375 47.5 
Q 32.28125 48.484375 27.875 48.484375 
Q 21.1875 48.484375 17.84375 46.4375 
Q 14.5 44.390625 14.5 40.28125 
Q 14.5 37.15625 16.890625 35.375 
Q 19.28125 33.59375 26.515625 31.984375 
L 29.59375 31.296875 
Q 39.15625 29.25 43.1875 25.515625 
Q 47.21875 21.78125 47.21875 15.09375 
Q 47.21875 7.46875 41.1875 3.015625 
Q 35.15625 -1.421875 24.609375 -1.421875 
Q 20.21875 -1.421875 15.453125 -0.5625 
Q 10.6875 0.296875 5.421875 2 
L 5.421875 11.28125 
Q 10.40625 8.6875 15.234375 7.390625 
Q 20.0625 6.109375 24.8125 6.109375 
Q 31.15625 6.109375 34.5625 8.28125 
Q 37.984375 10.453125 37.984375 14.40625 
Q 37.984375 18.0625 35.515625 20.015625 
Q 33.0625 21.96875 24.703125 23.78125 
L 21.578125 24.515625 
Q 13.234375 26.265625 9.515625 29.90625 
Q 5.8125 33.546875 5.8125 39.890625 
Q 5.8125 47.609375 11.28125 51.796875 
Q 16.75 56 26.8125 56 
Q 31.78125 56 36.171875 55.265625 
Q 40.578125 54.546875 44.28125 53.078125 
z
" id="DejaVuSans-115"/>
       <path d="M 8.5 21.578125 
L 8.5 54.6875 
L 17.484375 54.6875 
L 17.484375 21.921875 
Q 17.484375 14.15625 20.5 10.265625 
Q 23.53125 6.390625 29.59375 6.390625 
Q 36.859375 6.390625 41.078125 11.03125 
Q 45.3125 15.671875 45.3125 23.6875 
L 45.3125 54.6875 
L 54.296875 54.6875 
L 54.296875 0 
L 45.3125 0 
L 45.3125 8.40625 
Q 42.046875 3.421875 37.71875 1 
Q 33.40625 -1.421875 27.6875 -1.421875 
Q 18.265625 -1.421875 13.375 4.4375 
Q 8.5 10.296875 8.5 21.578125 
z
M 31.109375 56 
z
" id="DejaVuSans-117"/>
       <path d="M 41.109375 46.296875 
Q 39.59375 47.171875 37.8125 47.578125 
Q 36.03125 48 33.890625 48 
Q 26.265625 48 22.1875 43.046875 
Q 18.109375 38.09375 18.109375 28.8125 
L 18.109375 0 
L 9.078125 0 
L 9.078125 54.6875 
L 18.109375 54.6875 
L 18.109375 46.1875 
Q 20.953125 51.171875 25.484375 53.578125 
Q 30.03125 56 36.53125 56 
Q 37.453125 56 38.578125 55.875 
Q 39.703125 55.765625 41.0625 55.515625 
z
" id="DejaVuSans-114"/>
       <path d="M 45.40625 46.390625 
L 45.40625 75.984375 
L 54.390625 75.984375 
L 54.390625 0 
L 45.40625 0 
L 45.40625 8.203125 
Q 42.578125 3.328125 38.25 0.953125 
Q 33.9375 -1.421875 27.875 -1.421875 
Q 17.96875 -1.421875 11.734375 6.484375 
Q 5.515625 14.40625 5.515625 27.296875 
Q 5.515625 40.1875 11.734375 48.09375 
Q 17.96875 56 27.875 56 
Q 33.9375 56 38.25 53.625 
Q 42.578125 51.265625 45.40625 46.390625 
z
M 14.796875 27.296875 
Q 14.796875 17.390625 18.875 11.75 
Q 22.953125 6.109375 30.078125 6.109375 
Q 37.203125 6.109375 41.296875 11.75 
Q 45.40625 17.390625 45.40625 27.296875 
Q 45.40625 37.203125 41.296875 42.84375 
Q 37.203125 48.484375 30.078125 48.484375 
Q 22.953125 48.484375 18.875 42.84375 
Q 14.796875 37.203125 14.796875 27.296875 
z
" id="DejaVuSans-100"/>
       <path d="M 64.40625 67.28125 
L 64.40625 56.890625 
Q 59.421875 61.53125 53.78125 63.8125 
Q 48.140625 66.109375 41.796875 66.109375 
Q 29.296875 66.109375 22.65625 58.46875 
Q 16.015625 50.828125 16.015625 36.375 
Q 16.015625 21.96875 22.65625 14.328125 
Q 29.296875 6.6875 41.796875 6.6875 
Q 48.140625 6.6875 53.78125 8.984375 
Q 59.421875 11.28125 64.40625 15.921875 
L 64.40625 5.609375 
Q 59.234375 2.09375 53.4375 0.328125 
Q 47.65625 -1.421875 41.21875 -1.421875 
Q 24.65625 -1.421875 15.125 8.703125 
Q 5.609375 18.84375 5.609375 36.375 
Q 5.609375 53.953125 15.125 64.078125 
Q 24.65625 74.21875 41.21875 74.21875 
Q 47.75 74.21875 53.53125 72.484375 
Q 59.328125 70.75 64.40625 67.28125 
z
" id="DejaVuSans-67"/>
       <path d="M 10.59375 35.5 
L 73.1875 35.5 
L 73.1875 27.203125 
L 10.59375 27.203125 
z
" id="DejaVuSans-8722"/>
       <path d="M 18.109375 8.203125 
L 18.109375 -20.796875 
L 9.078125 -20.796875 
L 9.078125 54.6875 
L 18.109375 54.6875 
L 18.109375 46.390625 
Q 20.953125 51.265625 25.265625 53.625 
Q 29.59375 56 35.59375 56 
Q 45.5625 56 51.78125 48.09375 
Q 58.015625 40.1875 58.015625 27.296875 
Q 58.015625 14.40625 51.78125 6.484375 
Q 45.5625 -1.421875 35.59375 -1.421875 
Q 29.59375 -1.421875 25.265625 0.953125 
Q 20.953125 3.328125 18.109375 8.203125 
z
M 48.6875 27.296875 
Q 48.6875 37.203125 44.609375 42.84375 
Q 40.53125 48.484375 33.40625 48.484375 
Q 26.265625 48.484375 22.1875 42.84375 
Q 18.109375 37.203125 18.109375 27.296875 
Q 18.109375 17.390625 22.1875 11.75 
Q 26.265625 6.109375 33.40625 6.109375 
Q 40.53125 6.109375 44.609375 11.75 
Q 48.6875 17.390625 48.6875 27.296875 
z
" id="DejaVuSans-112"/>
       <path d="M 18.3125 70.21875 
L 18.3125 54.6875 
L 36.8125 54.6875 
L 36.8125 47.703125 
L 18.3125 47.703125 
L 18.3125 18.015625 
Q 18.3125 11.328125 20.140625 9.421875 
Q 21.96875 7.515625 27.59375 7.515625 
L 36.8125 7.515625 
L 36.8125 0 
L 27.59375 0 
Q 17.1875 0 13.234375 3.875 
Q 9.28125 7.765625 9.28125 18.015625 
L 9.28125 47.703125 
L 2.6875 47.703125 
L 2.6875 54.6875 
L 9.28125 54.6875 
L 9.28125 70.21875 
z
" id="DejaVuSans-116"/>
       <path d="M 9.421875 54.6875 
L 18.40625 54.6875 
L 18.40625 0 
L 9.421875 0 
z
M 9.421875 75.984375 
L 18.40625 75.984375 
L 18.40625 64.59375 
L 9.421875 64.59375 
z
" id="DejaVuSans-105"/>
       <path d="M 54.890625 33.015625 
L 54.890625 0 
L 45.90625 0 
L 45.90625 32.71875 
Q 45.90625 40.484375 42.875 44.328125 
Q 39.84375 48.1875 33.796875 48.1875 
Q 26.515625 48.1875 22.3125 43.546875 
Q 18.109375 38.921875 18.109375 30.90625 
L 18.109375 0 
L 9.078125 0 
L 9.078125 75.984375 
L 18.109375 75.984375 
L 18.109375 46.1875 
Q 21.34375 51.125 25.703125 53.5625 
Q 30.078125 56 35.796875 56 
Q 45.21875 56 50.046875 50.171875 
Q 54.890625 44.34375 54.890625 33.015625 
z
" id="DejaVuSans-104"/>
      </defs>
      <use transform="translate(0 0.015625)" xlink:href="#DejaVuSans-77"/>
      <use transform="translate(86.279297 0.015625)" xlink:href="#DejaVuSans-101"/>
      <use transform="translate(147.802734 0.015625)" xlink:href="#DejaVuSans-97"/>
      <use transform="translate(209.082031 0.015625)" xlink:href="#DejaVuSans-115"/>
      <use transform="translate(261.181641 0.015625)" xlink:href="#DejaVuSans-117"/>
      <use transform="translate(324.560547 0.015625)" xlink:href="#DejaVuSans-114"/>
      <use transform="translate(365.673828 0.015625)" xlink:href="#DejaVuSans-101"/>
      <use transform="translate(427.197266 0.015625)" xlink:href="#DejaVuSans-100"/>
      <use transform="translate(523.144207 0.015625)" xlink:href="#DejaVuSans-67"/>
      <use transform="translate(612.450847 0.015625)" xlink:href="#DejaVuSans-8722"/>
      <use transform="translate(715.722332 0.015625)" xlink:href="#DejaVuSans-112"/>
      <use transform="translate(779.198894 0.015625)" xlink:href="#DejaVuSans-101"/>
      <use transform="translate(840.722332 0.015625)" xlink:href="#DejaVuSans-112"/>
      <use transform="translate(904.198894 0.015625)" xlink:href="#DejaVuSans-116"/>
      <use transform="translate(943.407878 0.015625)" xlink:href="#DejaVuSans-105"/>
      <use transform="translate(971.191082 0.015625)" xlink:href="#DejaVuSans-100"/>
      <use transform="translate(1034.667644 0.015625)" xlink:href="#DejaVuSans-101"/>
      <use transform="translate(1097.148113 -16.390625)scale(0.7)" xlink:href="#DejaVuSans-49"/>
      <use transform="translate(1141.684246 -16.390625)scale(0.7)" xlink:href="#DejaVuSans-104"/>
      <use transform="translate(1199.687175 -16.390625)scale(0.7)" xlink:href="#DejaVuSans-8722"/>
      <use transform="translate(1271.977214 -16.390625)scale(0.7)" xlink:href="#DejaVuSans-114"/>
      <use transform="translate(1300.756511 -16.390625)scale(0.7)" xlink:href="#DejaVuSans-105"/>
      <use transform="translate(1320.204753 -16.390625)scale(0.7)" xlink:href="#DejaVuSans-115"/>
      <use transform="translate(1356.67448 -16.390625)scale(0.7)" xlink:href="#DejaVuSans-101"/>
     </g>
    </g>
   </g>
   <g id="matplotlib.axis_2">
    <g id="ytick_1">
     <g id="line2d_9">
      <defs>
       <path d="M 0 0 
L -3.5 0 
" id="m2b72979973" style="stroke:#000000;stroke-width:0.8;"/>
      </defs>
      <g>
       <use style="stroke:#000000;stroke-width:0.8;" x="42.29375" xlink:href="#m2b72979973" y="294.912645"/>
      </g>
     </g>
     <g id="text_10">
      <!-- 1 -->
      <g transform="translate(25.75 300.611473)scale(0.15 -0.15)">
       <use xlink:href="#DejaVuSans-49"/>
      </g>
     </g>
    </g>
    <g id="ytick_2">
     <g id="line2d_10">
      <g>
       <use style="stroke:#000000;stroke-width:0.8;" x="42.29375" xlink:href="#m2b72979973" y="257.267215"/>
      </g>
     </g>
     <g id="text_11">
      <!-- 2 -->
      <g transform="translate(25.75 262.966043)scale(0.15 -0.15)">
       <use xlink:href="#DejaVuSans-50"/>
      </g>
     </g>
    </g>
    <g id="ytick_3">
     <g id="line2d_11">
      <g>
       <use style="stroke:#000000;stroke-width:0.8;" x="42.29375" xlink:href="#m2b72979973" y="219.621786"/>
      </g>
     </g>
     <g id="text_12">
      <!-- 3 -->
      <g transform="translate(25.75 225.320614)scale(0.15 -0.15)">
       <use xlink:href="#DejaVuSans-51"/>
      </g>
     </g>
    </g>
    <g id="ytick_4">
     <g id="line2d_12">
      <g>
       <use style="stroke:#000000;stroke-width:0.8;" x="42.29375" xlink:href="#m2b72979973" y="181.976356"/>
      </g>
     </g>
     <g id="text_13">
      <!-- 4 -->
      <g transform="translate(25.75 187.675185)scale(0.15 -0.15)">
       <use xlink:href="#DejaVuSans-52"/>
      </g>
     </g>
    </g>
    <g id="ytick_5">
     <g id="line2d_13">
      <g>
       <use style="stroke:#000000;stroke-width:0.8;" x="42.29375" xlink:href="#m2b72979973" y="144.330927"/>
      </g>
     </g>
     <g id="text_14">
      <!-- 5 -->
      <g transform="translate(25.75 150.029755)scale(0.15 -0.15)">
       <use xlink:href="#DejaVuSans-53"/>
      </g>
     </g>
    </g>
    <g id="ytick_6">
     <g id="line2d_14">
      <g>
       <use style="stroke:#000000;stroke-width:0.8;" x="42.29375" xlink:href="#m2b72979973" y="106.685498"/>
      </g>
     </g>
     <g id="text_15">
      <!-- 6 -->
      <g transform="translate(25.75 112.384326)scale(0.15 -0.15)">
       <use xlink:href="#DejaVuSans-54"/>
      </g>
     </g>
    </g>
    <g id="ytick_7">
     <g id="line2d_15">
      <g>
       <use style="stroke:#000000;stroke-width:0.8;" x="42.29375" xlink:href="#m2b72979973" y="69.040068"/>
      </g>
     </g>
     <g id="text_16">
      <!-- 7 -->
      <g transform="translate(25.75 74.738897)scale(0.15 -0.15)">
       <use xlink:href="#DejaVuSans-55"/>
      </g>
     </g>
    </g>
    <g id="ytick_8">
     <g id="line2d_16">
      <g>
       <use style="stroke:#000000;stroke-width:0.8;" x="42.29375" xlink:href="#m2b72979973" y="31.394639"/>
      </g>
     </g>
     <g id="text_17">
      <!-- 8 -->
      <g transform="translate(25.75 37.093467)scale(0.15 -0.15)">
       <use xlink:href="#DejaVuSans-56"/>
      </g>
     </g>
    </g>
    <g id="text_18">
     <!-- $\mathregular{Predicted\ C-peptide_{1h-rise}}$ -->
     <g transform="translate(18.6 266.727187)rotate(-90)scale(0.15 -0.15)">
      <defs>
       <path d="M 19.671875 64.796875 
L 19.671875 37.40625 
L 32.078125 37.40625 
Q 38.96875 37.40625 42.71875 40.96875 
Q 46.484375 44.53125 46.484375 51.125 
Q 46.484375 57.671875 42.71875 61.234375 
Q 38.96875 64.796875 32.078125 64.796875 
z
M 9.8125 72.90625 
L 32.078125 72.90625 
Q 44.34375 72.90625 50.609375 67.359375 
Q 56.890625 61.8125 56.890625 51.125 
Q 56.890625 40.328125 50.609375 34.8125 
Q 44.34375 29.296875 32.078125 29.296875 
L 19.671875 29.296875 
L 19.671875 0 
L 9.8125 0 
z
" id="DejaVuSans-80"/>
       <path d="M 48.78125 52.59375 
L 48.78125 44.1875 
Q 44.96875 46.296875 41.140625 47.34375 
Q 37.3125 48.390625 33.40625 48.390625 
Q 24.65625 48.390625 19.8125 42.84375 
Q 14.984375 37.3125 14.984375 27.296875 
Q 14.984375 17.28125 19.8125 11.734375 
Q 24.65625 6.203125 33.40625 6.203125 
Q 37.3125 6.203125 41.140625 7.25 
Q 44.96875 8.296875 48.78125 10.40625 
L 48.78125 2.09375 
Q 45.015625 0.34375 40.984375 -0.53125 
Q 36.96875 -1.421875 32.421875 -1.421875 
Q 20.0625 -1.421875 12.78125 6.34375 
Q 5.515625 14.109375 5.515625 27.296875 
Q 5.515625 40.671875 12.859375 48.328125 
Q 20.21875 56 33.015625 56 
Q 37.15625 56 41.109375 55.140625 
Q 45.0625 54.296875 48.78125 52.59375 
z
" id="DejaVuSans-99"/>
      </defs>
      <use transform="translate(0 0.015625)" xlink:href="#DejaVuSans-80"/>
      <use transform="translate(60.302734 0.015625)" xlink:href="#DejaVuSans-114"/>
      <use transform="translate(101.416016 0.015625)" xlink:href="#DejaVuSans-101"/>
      <use transform="translate(162.939453 0.015625)" xlink:href="#DejaVuSans-100"/>
      <use transform="translate(226.416016 0.015625)" xlink:href="#DejaVuSans-105"/>
      <use transform="translate(254.199219 0.015625)" xlink:href="#DejaVuSans-99"/>
      <use transform="translate(309.179688 0.015625)" xlink:href="#DejaVuSans-116"/>
      <use transform="translate(348.388672 0.015625)" xlink:href="#DejaVuSans-101"/>
      <use transform="translate(409.912109 0.015625)" xlink:href="#DejaVuSans-100"/>
      <use transform="translate(505.85905 0.015625)" xlink:href="#DejaVuSans-67"/>
      <use transform="translate(595.165691 0.015625)" xlink:href="#DejaVuSans-8722"/>
      <use transform="translate(698.437175 0.015625)" xlink:href="#DejaVuSans-112"/>
      <use transform="translate(761.913738 0.015625)" xlink:href="#DejaVuSans-101"/>
      <use transform="translate(823.437175 0.015625)" xlink:href="#DejaVuSans-112"/>
      <use transform="translate(886.913738 0.015625)" xlink:href="#DejaVuSans-116"/>
      <use transform="translate(926.122722 0.015625)" xlink:href="#DejaVuSans-105"/>
      <use transform="translate(953.905925 0.015625)" xlink:href="#DejaVuSans-100"/>
      <use transform="translate(1017.382488 0.015625)" xlink:href="#DejaVuSans-101"/>
      <use transform="translate(1079.862957 -16.390625)scale(0.7)" xlink:href="#DejaVuSans-49"/>
      <use transform="translate(1124.399089 -16.390625)scale(0.7)" xlink:href="#DejaVuSans-104"/>
      <use transform="translate(1182.402019 -16.390625)scale(0.7)" xlink:href="#DejaVuSans-8722"/>
      <use transform="translate(1254.692058 -16.390625)scale(0.7)" xlink:href="#DejaVuSans-114"/>
      <use transform="translate(1283.471355 -16.390625)scale(0.7)" xlink:href="#DejaVuSans-105"/>
      <use transform="translate(1302.919597 -16.390625)scale(0.7)" xlink:href="#DejaVuSans-115"/>
      <use transform="translate(1339.389324 -16.390625)scale(0.7)" xlink:href="#DejaVuSans-101"/>
     </g>
    </g>
   </g>
   <g id="line2d_17">
    <path clip-path="url(#pc83380b08f)" d="M 42.29375 178.620074 
L 69.343611 179.026074 
L 69.730038 179.031874 
L 70.116465 179.037674 
L 77.844997 179.153674 
L 81.709262 179.211674 
L 84.800675 179.258075 
L 85.187102 179.263875 
L 94.847767 179.408875 
L 96.7799 179.437875 
L 97.166326 179.443675 
L 97.939179 179.455275 
L 99.871312 179.484275 
L 102.962725 179.530675 
L 104.508431 179.553875 
L 108.759124 179.617675 
L 117.260509 179.745275 
L 117.646936 179.751075 
L 118.806215 179.768475 
L 119.579069 179.780075 
L 122.670481 179.826475 
L 123.056908 179.832275 
L 133.876852 179.994675 
L 145.083224 180.162875 
L 145.856077 180.174475 
L 147.401783 180.197675 
L 156.676021 180.336875 
L 161.699567 180.412275 
L 166.723113 180.487675 
L 167.495966 180.499275 
L 168.268819 180.510875 
L 178.702337 180.667475 
L 182.566603 180.725476 
L 186.044443 180.777676 
L 190.295135 180.841476 
L 196.091534 180.928476 
L 198.023667 180.957476 
L 200.728653 180.998076 
L 222.368542 181.322876 
L 223.914249 181.346076 
L 229.710648 181.433076 
L 241.303445 181.607076 
L 299.267434 182.477077 
L 301.97242 182.517677 
L 310.860232 182.651077 
L 317.815911 182.755477 
L 321.29375 182.807677 
" style="fill:none;stroke:#1f77b4;stroke-linecap:square;stroke-width:1.5;"/>
   </g>
   <g id="line2d_18">
    <path clip-path="url(#pc83380b08f)" d="M 42.29375 332.558074 
L 321.29375 332.558074 
" style="fill:none;stroke:#000000;stroke-linecap:square;stroke-opacity:0.1;stroke-width:1.5;"/>
   </g>
   <g id="line2d_19">
    <path clip-path="url(#pc83380b08f)" d="M 7.515357 298.677187 
L 7.515357 26.877187 
" style="fill:none;stroke:#000000;stroke-linecap:square;stroke-opacity:0.1;stroke-width:1.5;"/>
   </g>
   <g id="patch_3">
    <path d="M 42.29375 298.677187 
L 42.29375 26.877187 
" style="fill:none;stroke:#000000;stroke-linecap:square;stroke-linejoin:miter;stroke-width:0.8;"/>
   </g>
   <g id="patch_4">
    <path d="M 321.29375 298.677187 
L 321.29375 26.877187 
" style="fill:none;stroke:#000000;stroke-linecap:square;stroke-linejoin:miter;stroke-width:0.8;"/>
   </g>
   <g id="patch_5">
    <path d="M 42.29375 298.677187 
L 321.29375 298.677187 
" style="fill:none;stroke:#000000;stroke-linecap:square;stroke-linejoin:miter;stroke-width:0.8;"/>
   </g>
   <g id="patch_6">
    <path d="M 42.29375 26.877187 
L 321.29375 26.877187 
" style="fill:none;stroke:#000000;stroke-linecap:square;stroke-linejoin:miter;stroke-width:0.8;"/>
   </g>
   <g id="text_19">
    <!-- R = -0.038 -->
    <g transform="translate(68.79875 54.057187)scale(0.15 -0.15)">
     <defs>
      <path d="M 44.390625 34.1875 
Q 47.5625 33.109375 50.5625 29.59375 
Q 53.5625 26.078125 56.59375 19.921875 
L 66.609375 0 
L 56 0 
L 46.6875 18.703125 
Q 43.0625 26.03125 39.671875 28.421875 
Q 36.28125 30.8125 30.421875 30.8125 
L 19.671875 30.8125 
L 19.671875 0 
L 9.8125 0 
L 9.8125 72.90625 
L 32.078125 72.90625 
Q 44.578125 72.90625 50.734375 67.671875 
Q 56.890625 62.453125 56.890625 51.90625 
Q 56.890625 45.015625 53.6875 40.46875 
Q 50.484375 35.9375 44.390625 34.1875 
z
M 19.671875 64.796875 
L 19.671875 38.921875 
L 32.078125 38.921875 
Q 39.203125 38.921875 42.84375 42.21875 
Q 46.484375 45.515625 46.484375 51.90625 
Q 46.484375 58.296875 42.84375 61.546875 
Q 39.203125 64.796875 32.078125 64.796875 
z
" id="DejaVuSans-82"/>
      <path id="DejaVuSans-32"/>
      <path d="M 10.59375 45.40625 
L 73.1875 45.40625 
L 73.1875 37.203125 
L 10.59375 37.203125 
z
M 10.59375 25.484375 
L 73.1875 25.484375 
L 73.1875 17.1875 
L 10.59375 17.1875 
z
" id="DejaVuSans-61"/>
      <path d="M 4.890625 31.390625 
L 31.203125 31.390625 
L 31.203125 23.390625 
L 4.890625 23.390625 
z
" id="DejaVuSans-45"/>
      <path d="M 31.78125 66.40625 
Q 24.171875 66.40625 20.328125 58.90625 
Q 16.5 51.421875 16.5 36.375 
Q 16.5 21.390625 20.328125 13.890625 
Q 24.171875 6.390625 31.78125 6.390625 
Q 39.453125 6.390625 43.28125 13.890625 
Q 47.125 21.390625 47.125 36.375 
Q 47.125 51.421875 43.28125 58.90625 
Q 39.453125 66.40625 31.78125 66.40625 
z
M 31.78125 74.21875 
Q 44.046875 74.21875 50.515625 64.515625 
Q 56.984375 54.828125 56.984375 36.375 
Q 56.984375 17.96875 50.515625 8.265625 
Q 44.046875 -1.421875 31.78125 -1.421875 
Q 19.53125 -1.421875 13.0625 8.265625 
Q 6.59375 17.96875 6.59375 36.375 
Q 6.59375 54.828125 13.0625 64.515625 
Q 19.53125 74.21875 31.78125 74.21875 
z
" id="DejaVuSans-48"/>
      <path d="M 10.6875 12.40625 
L 21 12.40625 
L 21 0 
L 10.6875 0 
z
" id="DejaVuSans-46"/>
     </defs>
     <use xlink:href="#DejaVuSans-82"/>
     <use x="69.482422" xlink:href="#DejaVuSans-32"/>
     <use x="101.269531" xlink:href="#DejaVuSans-61"/>
     <use x="185.058594" xlink:href="#DejaVuSans-32"/>
     <use x="216.845703" xlink:href="#DejaVuSans-45"/>
     <use x="252.929688" xlink:href="#DejaVuSans-48"/>
     <use x="316.552734" xlink:href="#DejaVuSans-46"/>
     <use x="348.339844" xlink:href="#DejaVuSans-48"/>
     <use x="411.962891" xlink:href="#DejaVuSans-51"/>
     <use x="475.585938" xlink:href="#DejaVuSans-56"/>
    </g>
   </g>
   <g id="text_20">
    <!-- p = 7.91e-01 -->
    <g transform="translate(70.19375 67.647187)scale(0.12 -0.12)">
     <defs>
      <path d="M 10.984375 1.515625 
L 10.984375 10.5 
Q 14.703125 8.734375 18.5 7.8125 
Q 22.3125 6.890625 25.984375 6.890625 
Q 35.75 6.890625 40.890625 13.453125 
Q 46.046875 20.015625 46.78125 33.40625 
Q 43.953125 29.203125 39.59375 26.953125 
Q 35.25 24.703125 29.984375 24.703125 
Q 19.046875 24.703125 12.671875 31.3125 
Q 6.296875 37.9375 6.296875 49.421875 
Q 6.296875 60.640625 12.9375 67.421875 
Q 19.578125 74.21875 30.609375 74.21875 
Q 43.265625 74.21875 49.921875 64.515625 
Q 56.59375 54.828125 56.59375 36.375 
Q 56.59375 19.140625 48.40625 8.859375 
Q 40.234375 -1.421875 26.421875 -1.421875 
Q 22.703125 -1.421875 18.890625 -0.6875 
Q 15.09375 0.046875 10.984375 1.515625 
z
M 30.609375 32.421875 
Q 37.25 32.421875 41.125 36.953125 
Q 45.015625 41.5 45.015625 49.421875 
Q 45.015625 57.28125 41.125 61.84375 
Q 37.25 66.40625 30.609375 66.40625 
Q 23.96875 66.40625 20.09375 61.84375 
Q 16.21875 57.28125 16.21875 49.421875 
Q 16.21875 41.5 20.09375 36.953125 
Q 23.96875 32.421875 30.609375 32.421875 
z
" id="DejaVuSans-57"/>
     </defs>
     <use xlink:href="#DejaVuSans-112"/>
     <use x="63.476562" xlink:href="#DejaVuSans-32"/>
     <use x="95.263672" xlink:href="#DejaVuSans-61"/>
     <use x="179.052734" xlink:href="#DejaVuSans-32"/>
     <use x="210.839844" xlink:href="#DejaVuSans-55"/>
     <use x="274.462891" xlink:href="#DejaVuSans-46"/>
     <use x="306.25" xlink:href="#DejaVuSans-57"/>
     <use x="369.873047" xlink:href="#DejaVuSans-49"/>
     <use x="433.496094" xlink:href="#DejaVuSans-101"/>
     <use x="495.019531" xlink:href="#DejaVuSans-45"/>
     <use x="531.103516" xlink:href="#DejaVuSans-48"/>
     <use x="594.726562" xlink:href="#DejaVuSans-49"/>
    </g>
   </g>
   <g id="text_21">
    <!-- n = 48 -->
    <g transform="translate(70.19375 81.237187)scale(0.12 -0.12)">
     <defs>
      <path d="M 54.890625 33.015625 
L 54.890625 0 
L 45.90625 0 
L 45.90625 32.71875 
Q 45.90625 40.484375 42.875 44.328125 
Q 39.84375 48.1875 33.796875 48.1875 
Q 26.515625 48.1875 22.3125 43.546875 
Q 18.109375 38.921875 18.109375 30.90625 
L 18.109375 0 
L 9.078125 0 
L 9.078125 54.6875 
L 18.109375 54.6875 
L 18.109375 46.1875 
Q 21.34375 51.125 25.703125 53.5625 
Q 30.078125 56 35.796875 56 
Q 45.21875 56 50.046875 50.171875 
Q 54.890625 44.34375 54.890625 33.015625 
z
" id="DejaVuSans-110"/>
     </defs>
     <use xlink:href="#DejaVuSans-110"/>
     <use x="63.378906" xlink:href="#DejaVuSans-32"/>
     <use x="95.166016" xlink:href="#DejaVuSans-61"/>
     <use x="178.955078" xlink:href="#DejaVuSans-32"/>
     <use x="210.742188" xlink:href="#DejaVuSans-52"/>
     <use x="274.365234" xlink:href="#DejaVuSans-56"/>
    </g>
   </g>
   <g id="text_22">
    <!-- UK -->
    <g transform="translate(169.304844 20.877187)scale(0.18 -0.18)">
     <defs>
      <path d="M 8.6875 72.90625 
L 18.609375 72.90625 
L 18.609375 28.609375 
Q 18.609375 16.890625 22.84375 11.734375 
Q 27.09375 6.59375 36.625 6.59375 
Q 46.09375 6.59375 50.34375 11.734375 
Q 54.59375 16.890625 54.59375 28.609375 
L 54.59375 72.90625 
L 64.5 72.90625 
L 64.5 27.390625 
Q 64.5 13.140625 57.4375 5.859375 
Q 50.390625 -1.421875 36.625 -1.421875 
Q 22.796875 -1.421875 15.734375 5.859375 
Q 8.6875 13.140625 8.6875 27.390625 
z
" id="DejaVuSans-85"/>
      <path d="M 9.8125 72.90625 
L 19.671875 72.90625 
L 19.671875 42.09375 
L 52.390625 72.90625 
L 65.09375 72.90625 
L 28.90625 38.921875 
L 67.671875 0 
L 54.6875 0 
L 19.671875 35.109375 
L 19.671875 0 
L 9.8125 0 
z
" id="DejaVuSans-75"/>
     </defs>
     <use xlink:href="#DejaVuSans-85"/>
     <use x="73.193359" xlink:href="#DejaVuSans-75"/>
    </g>
   </g>
  </g>
 </g>
 <defs>
  <clipPath id="pc83380b08f">
   <rect height="271.8" width="279" x="42.29375" y="26.877187"/>
  </clipPath>
 </defs>
</svg>
